<mxfile host="app.diagrams.net" modified="2023-05-24T16:04:46.878Z" agent="Mozilla/5.0 (Windows NT 10.0; Win64; x64) AppleWebKit/537.36 (KHTML, like Gecko) Chrome/113.0.0.0 Safari/537.36" etag="ZRxnH0J4hZwxk7O6MHEb" version="21.3.3" type="device">
  <diagram name="Page-1" id="2YBvvXClWsGukQMizWep">
    <mxGraphModel dx="1376" dy="1581" grid="1" gridSize="10" guides="1" tooltips="1" connect="1" arrows="1" fold="1" page="1" pageScale="1" pageWidth="850" pageHeight="1100" math="0" shadow="0">
      <root>
        <mxCell id="0" />
        <mxCell id="1" parent="0" />
        <mxCell id="aM9ryv3xv72pqoxQDRHE-1" value="User" style="shape=umlLifeline;perimeter=lifelinePerimeter;whiteSpace=wrap;html=1;container=0;dropTarget=0;collapsible=0;recursiveResize=0;outlineConnect=0;portConstraint=eastwest;newEdgeStyle={&quot;edgeStyle&quot;:&quot;elbowEdgeStyle&quot;,&quot;elbow&quot;:&quot;vertical&quot;,&quot;curved&quot;:0,&quot;rounded&quot;:0};" parent="1" vertex="1">
          <mxGeometry x="60" y="40" width="100" height="1190" as="geometry" />
        </mxCell>
        <mxCell id="aM9ryv3xv72pqoxQDRHE-5" value="ViewController" style="shape=umlLifeline;perimeter=lifelinePerimeter;whiteSpace=wrap;html=1;container=0;dropTarget=0;collapsible=0;recursiveResize=0;outlineConnect=0;portConstraint=eastwest;newEdgeStyle={&quot;edgeStyle&quot;:&quot;elbowEdgeStyle&quot;,&quot;elbow&quot;:&quot;vertical&quot;,&quot;curved&quot;:0,&quot;rounded&quot;:0};" parent="1" vertex="1">
          <mxGeometry x="210" y="40" width="100" height="1190" as="geometry" />
        </mxCell>
        <mxCell id="c30iMTrRn4nWwHMForby-4" value="ViewModel" style="shape=umlLifeline;perimeter=lifelinePerimeter;whiteSpace=wrap;html=1;container=1;dropTarget=0;collapsible=0;recursiveResize=0;outlineConnect=0;portConstraint=eastwest;newEdgeStyle={&quot;edgeStyle&quot;:&quot;elbowEdgeStyle&quot;,&quot;elbow&quot;:&quot;vertical&quot;,&quot;curved&quot;:0,&quot;rounded&quot;:0};" parent="1" vertex="1">
          <mxGeometry x="550" y="40" width="100" height="1190" as="geometry" />
        </mxCell>
        <mxCell id="c30iMTrRn4nWwHMForby-5" value="Repository" style="shape=umlLifeline;perimeter=lifelinePerimeter;whiteSpace=wrap;html=1;container=1;dropTarget=0;collapsible=0;recursiveResize=0;outlineConnect=0;portConstraint=eastwest;newEdgeStyle={&quot;edgeStyle&quot;:&quot;elbowEdgeStyle&quot;,&quot;elbow&quot;:&quot;vertical&quot;,&quot;curved&quot;:0,&quot;rounded&quot;:0};" parent="1" vertex="1">
          <mxGeometry x="680" y="40" width="100" height="1060" as="geometry" />
        </mxCell>
        <mxCell id="c30iMTrRn4nWwHMForby-7" value="Database" style="shape=umlLifeline;perimeter=lifelinePerimeter;whiteSpace=wrap;html=1;container=1;dropTarget=0;collapsible=0;recursiveResize=0;outlineConnect=0;portConstraint=eastwest;newEdgeStyle={&quot;edgeStyle&quot;:&quot;elbowEdgeStyle&quot;,&quot;elbow&quot;:&quot;vertical&quot;,&quot;curved&quot;:0,&quot;rounded&quot;:0};" parent="1" vertex="1">
          <mxGeometry x="810" y="40" width="100" height="1190" as="geometry" />
        </mxCell>
        <mxCell id="c30iMTrRn4nWwHMForby-8" value="crearCita()" style="html=1;verticalAlign=bottom;endArrow=block;edgeStyle=elbowEdgeStyle;elbow=vertical;curved=0;rounded=0;" parent="1" target="aM9ryv3xv72pqoxQDRHE-5" edge="1">
          <mxGeometry width="80" relative="1" as="geometry">
            <mxPoint x="110" y="110" as="sourcePoint" />
            <mxPoint x="180" y="110" as="targetPoint" />
          </mxGeometry>
        </mxCell>
        <mxCell id="c30iMTrRn4nWwHMForby-10" value="RoutesManager" style="shape=umlLifeline;perimeter=lifelinePerimeter;whiteSpace=wrap;html=1;container=1;dropTarget=0;collapsible=0;recursiveResize=0;outlineConnect=0;portConstraint=eastwest;newEdgeStyle={&quot;edgeStyle&quot;:&quot;elbowEdgeStyle&quot;,&quot;elbow&quot;:&quot;vertical&quot;,&quot;curved&quot;:0,&quot;rounded&quot;:0};" parent="1" vertex="1">
          <mxGeometry x="320" y="140" width="100" height="1090" as="geometry" />
        </mxCell>
        <mxCell id="c30iMTrRn4nWwHMForby-12" value="cambiarTIpoOperacion(TipoOperacion.AÑADIR)" style="html=1;verticalAlign=bottom;endArrow=block;edgeStyle=elbowEdgeStyle;elbow=vertical;curved=0;rounded=0;" parent="1" target="c30iMTrRn4nWwHMForby-4" edge="1">
          <mxGeometry width="80" relative="1" as="geometry">
            <mxPoint x="260" y="130" as="sourcePoint" />
            <mxPoint x="330" y="130" as="targetPoint" />
          </mxGeometry>
        </mxCell>
        <mxCell id="c30iMTrRn4nWwHMForby-13" value="initCitasDetalleView()" style="html=1;verticalAlign=bottom;endArrow=block;edgeStyle=elbowEdgeStyle;elbow=vertical;curved=0;rounded=0;" parent="1" target="c30iMTrRn4nWwHMForby-10" edge="1">
          <mxGeometry width="80" relative="1" as="geometry">
            <mxPoint x="260" y="210" as="sourcePoint" />
            <mxPoint x="340" y="210" as="targetPoint" />
          </mxGeometry>
        </mxCell>
        <mxCell id="c30iMTrRn4nWwHMForby-14" value="DetallesController" style="shape=umlLifeline;perimeter=lifelinePerimeter;whiteSpace=wrap;html=1;container=1;dropTarget=0;collapsible=0;recursiveResize=0;outlineConnect=0;portConstraint=eastwest;newEdgeStyle={&quot;edgeStyle&quot;:&quot;elbowEdgeStyle&quot;,&quot;elbow&quot;:&quot;vertical&quot;,&quot;curved&quot;:0,&quot;rounded&quot;:0};" parent="1" vertex="1">
          <mxGeometry x="440" y="190" width="100" height="1040" as="geometry" />
        </mxCell>
        <mxCell id="c30iMTrRn4nWwHMForby-15" value="show()" style="html=1;verticalAlign=bottom;endArrow=block;edgeStyle=elbowEdgeStyle;elbow=vertical;curved=0;rounded=0;" parent="1" target="c30iMTrRn4nWwHMForby-14" edge="1">
          <mxGeometry width="80" relative="1" as="geometry">
            <mxPoint x="370" y="270" as="sourcePoint" />
            <mxPoint x="450" y="270" as="targetPoint" />
          </mxGeometry>
        </mxCell>
        <mxCell id="c30iMTrRn4nWwHMForby-20" value="getComboBoxesData()" style="html=1;verticalAlign=bottom;endArrow=block;edgeStyle=elbowEdgeStyle;elbow=vertical;curved=0;rounded=0;" parent="1" edge="1">
          <mxGeometry width="80" relative="1" as="geometry">
            <mxPoint x="490" y="298" as="sourcePoint" />
            <mxPoint x="599.5000000000005" y="298.7777777777778" as="targetPoint" />
          </mxGeometry>
        </mxCell>
        <mxCell id="c30iMTrRn4nWwHMForby-21" value="comboBoxesData" style="html=1;verticalAlign=bottom;endArrow=open;dashed=1;endSize=8;edgeStyle=elbowEdgeStyle;elbow=vertical;curved=0;rounded=0;" parent="1" edge="1">
          <mxGeometry relative="1" as="geometry">
            <mxPoint x="600" y="328" as="sourcePoint" />
            <mxPoint x="488.2777777777778" y="327.6666666666665" as="targetPoint" />
          </mxGeometry>
        </mxCell>
        <mxCell id="c30iMTrRn4nWwHMForby-22" value="Pedir datos" style="html=1;verticalAlign=bottom;endArrow=open;dashed=1;endSize=8;edgeStyle=elbowEdgeStyle;elbow=vertical;curved=0;rounded=0;" parent="1" edge="1">
          <mxGeometry relative="1" as="geometry">
            <mxPoint x="490" y="348" as="sourcePoint" />
            <mxPoint x="108.27777777777783" y="347.6666666666665" as="targetPoint" />
          </mxGeometry>
        </mxCell>
        <mxCell id="c30iMTrRn4nWwHMForby-23" value="Inserción datos" style="html=1;verticalAlign=bottom;endArrow=block;edgeStyle=elbowEdgeStyle;elbow=vertical;curved=0;rounded=0;" parent="1" edge="1">
          <mxGeometry width="80" relative="1" as="geometry">
            <mxPoint x="110" y="378" as="sourcePoint" />
            <mxPoint x="489.50000000000045" y="378.7777777777778" as="targetPoint" />
          </mxGeometry>
        </mxCell>
        <mxCell id="c30iMTrRn4nWwHMForby-24" value="Validator" style="shape=umlLifeline;perimeter=lifelinePerimeter;whiteSpace=wrap;html=1;container=1;dropTarget=0;collapsible=0;recursiveResize=0;outlineConnect=0;portConstraint=eastwest;newEdgeStyle={&quot;edgeStyle&quot;:&quot;elbowEdgeStyle&quot;,&quot;elbow&quot;:&quot;vertical&quot;,&quot;curved&quot;:0,&quot;rounded&quot;:0};" parent="1" vertex="1">
          <mxGeometry x="614" y="328" width="100" height="902" as="geometry" />
        </mxCell>
        <mxCell id="c30iMTrRn4nWwHMForby-29" value="generarCita()" style="html=1;align=left;spacingLeft=2;endArrow=block;rounded=0;edgeStyle=orthogonalEdgeStyle;curved=0;rounded=0;" parent="1" edge="1">
          <mxGeometry relative="1" as="geometry">
            <mxPoint x="490" y="433" as="sourcePoint" />
            <Array as="points">
              <mxPoint x="510" y="463" />
            </Array>
            <mxPoint x="490" y="463" as="targetPoint" />
          </mxGeometry>
        </mxCell>
        <mxCell id="c30iMTrRn4nWwHMForby-30" value="añadirCita(Cita)" style="html=1;verticalAlign=bottom;endArrow=block;edgeStyle=elbowEdgeStyle;elbow=vertical;curved=0;rounded=0;" parent="1" edge="1">
          <mxGeometry width="80" relative="1" as="geometry">
            <mxPoint x="490" y="651" as="sourcePoint" />
            <mxPoint x="599.5000000000005" y="650.6666666666665" as="targetPoint" />
          </mxGeometry>
        </mxCell>
        <mxCell id="c30iMTrRn4nWwHMForby-31" value="validarDatos(Lista&amp;lt;Cita&amp;gt;)" style="html=1;verticalAlign=bottom;endArrow=block;edgeStyle=elbowEdgeStyle;elbow=vertical;curved=0;rounded=0;" parent="1" edge="1">
          <mxGeometry width="80" relative="1" as="geometry">
            <mxPoint x="599.7307692307693" y="699.1538461538462" as="sourcePoint" />
            <mxPoint x="664" y="699" as="targetPoint" />
          </mxGeometry>
        </mxCell>
        <mxCell id="c30iMTrRn4nWwHMForby-32" value="ALT" style="shape=umlFrame;whiteSpace=wrap;html=1;pointerEvents=0;" parent="1" vertex="1">
          <mxGeometry x="50" y="707" width="890" height="403" as="geometry" />
        </mxCell>
        <mxCell id="c30iMTrRn4nWwHMForby-33" value="Error validación" style="html=1;verticalAlign=bottom;endArrow=open;dashed=1;endSize=8;edgeStyle=elbowEdgeStyle;elbow=vertical;curved=0;rounded=0;" parent="1" target="c30iMTrRn4nWwHMForby-4" edge="1">
          <mxGeometry relative="1" as="geometry">
            <mxPoint x="662.5" y="737.7777777777778" as="sourcePoint" />
            <mxPoint x="490" y="740" as="targetPoint" />
          </mxGeometry>
        </mxCell>
        <mxCell id="c30iMTrRn4nWwHMForby-37" value="Cita" style="html=1;verticalAlign=bottom;endArrow=open;dashed=1;endSize=8;edgeStyle=elbowEdgeStyle;elbow=vertical;curved=0;rounded=0;exitX=0.47;exitY=0.485;exitDx=0;exitDy=0;exitPerimeter=0;" parent="1" edge="1">
          <mxGeometry relative="1" as="geometry">
            <mxPoint x="660" y="877.8000000000001" as="sourcePoint" />
            <mxPoint x="600" y="877" as="targetPoint" />
          </mxGeometry>
        </mxCell>
        <mxCell id="c30iMTrRn4nWwHMForby-38" value="saveCita(Cita)" style="html=1;verticalAlign=bottom;endArrow=block;edgeStyle=elbowEdgeStyle;elbow=vertical;curved=0;rounded=0;" parent="1" edge="1">
          <mxGeometry width="80" relative="1" as="geometry">
            <mxPoint x="600" y="907" as="sourcePoint" />
            <mxPoint x="729.5000000000005" y="906.6666666666665" as="targetPoint" />
          </mxGeometry>
        </mxCell>
        <mxCell id="c30iMTrRn4nWwHMForby-39" value="insertCita(CIta)" style="html=1;verticalAlign=bottom;endArrow=block;edgeStyle=elbowEdgeStyle;elbow=vertical;curved=0;rounded=0;" parent="1" edge="1">
          <mxGeometry x="-0.002" width="80" relative="1" as="geometry">
            <mxPoint x="730" y="929" as="sourcePoint" />
            <mxPoint x="859.5" y="928.5384615384614" as="targetPoint" />
            <mxPoint as="offset" />
          </mxGeometry>
        </mxCell>
        <mxCell id="c30iMTrRn4nWwHMForby-40" value="ALT" style="shape=umlFrame;whiteSpace=wrap;html=1;pointerEvents=0;" parent="1" vertex="1">
          <mxGeometry x="30" y="495" width="930" height="645" as="geometry" />
        </mxCell>
        <mxCell id="c30iMTrRn4nWwHMForby-43" value="Cita" style="html=1;verticalAlign=bottom;endArrow=open;dashed=1;endSize=8;edgeStyle=elbowEdgeStyle;elbow=vertical;curved=0;rounded=0;" parent="1" target="c30iMTrRn4nWwHMForby-5" edge="1">
          <mxGeometry relative="1" as="geometry">
            <mxPoint x="860" y="950" as="sourcePoint" />
            <mxPoint x="780" y="950" as="targetPoint" />
          </mxGeometry>
        </mxCell>
        <mxCell id="c30iMTrRn4nWwHMForby-44" value="Error validación" style="html=1;verticalAlign=bottom;endArrow=open;dashed=1;endSize=8;edgeStyle=elbowEdgeStyle;elbow=vertical;curved=0;rounded=0;" parent="1" target="aM9ryv3xv72pqoxQDRHE-1" edge="1">
          <mxGeometry x="0.0255" relative="1" as="geometry">
            <mxPoint x="490" y="549" as="sourcePoint" />
            <mxPoint x="380" y="549" as="targetPoint" />
            <Array as="points">
              <mxPoint x="330" y="580" />
            </Array>
            <mxPoint as="offset" />
          </mxGeometry>
        </mxCell>
        <mxCell id="c30iMTrRn4nWwHMForby-45" value="Error validación" style="html=1;verticalAlign=bottom;endArrow=open;dashed=1;endSize=8;edgeStyle=elbowEdgeStyle;elbow=vertical;curved=0;rounded=0;" parent="1" edge="1">
          <mxGeometry relative="1" as="geometry">
            <mxPoint x="490" y="784.61" as="sourcePoint" />
            <mxPoint x="109.63043478260875" y="784.6956521739132" as="targetPoint" />
          </mxGeometry>
        </mxCell>
        <mxCell id="c30iMTrRn4nWwHMForby-46" value="Error validación" style="html=1;verticalAlign=bottom;endArrow=open;dashed=1;endSize=8;edgeStyle=elbowEdgeStyle;elbow=vertical;curved=0;rounded=0;" parent="1" edge="1">
          <mxGeometry relative="1" as="geometry">
            <mxPoint x="600" y="761.5699999999999" as="sourcePoint" />
            <mxPoint x="490" y="761.5699999999999" as="targetPoint" />
          </mxGeometry>
        </mxCell>
        <mxCell id="c30iMTrRn4nWwHMForby-47" value="Cita" style="html=1;verticalAlign=bottom;endArrow=open;dashed=1;endSize=8;edgeStyle=elbowEdgeStyle;elbow=vertical;curved=0;rounded=0;" parent="1" edge="1">
          <mxGeometry relative="1" as="geometry">
            <mxPoint x="729" y="980.11" as="sourcePoint" />
            <mxPoint x="599" y="980.11" as="targetPoint" />
          </mxGeometry>
        </mxCell>
        <mxCell id="c30iMTrRn4nWwHMForby-48" value="Cita" style="html=1;verticalAlign=bottom;endArrow=open;dashed=1;endSize=8;edgeStyle=elbowEdgeStyle;elbow=vertical;curved=0;rounded=0;" parent="1" target="aM9ryv3xv72pqoxQDRHE-5" edge="1">
          <mxGeometry relative="1" as="geometry">
            <mxPoint x="600" y="1010" as="sourcePoint" />
            <mxPoint x="470" y="1010" as="targetPoint" />
          </mxGeometry>
        </mxCell>
        <mxCell id="c30iMTrRn4nWwHMForby-49" value="Cita" style="html=1;verticalAlign=bottom;endArrow=open;dashed=1;endSize=8;edgeStyle=elbowEdgeStyle;elbow=vertical;curved=0;rounded=0;" parent="1" edge="1">
          <mxGeometry relative="1" as="geometry">
            <mxPoint x="260" y="1030.07" as="sourcePoint" />
            <mxPoint x="110" y="1030.1399999999999" as="targetPoint" />
          </mxGeometry>
        </mxCell>
        <mxCell id="zrvc0awcCyqDCohn1Ixf-1" value="&lt;b&gt;if(cita.validate() == CitaError)&lt;/b&gt;" style="text;html=1;strokeColor=none;fillColor=none;align=center;verticalAlign=middle;whiteSpace=wrap;rounded=0;" parent="1" vertex="1">
          <mxGeometry x="50" y="532.5" width="170" height="30" as="geometry" />
        </mxCell>
        <mxCell id="zrvc0awcCyqDCohn1Ixf-2" value="&lt;b&gt;if(citaDatos.validate() == CitaError)&lt;/b&gt;" style="text;html=1;strokeColor=none;fillColor=none;align=center;verticalAlign=middle;whiteSpace=wrap;rounded=0;" parent="1" vertex="1">
          <mxGeometry x="50" y="730" width="210" height="30" as="geometry" />
        </mxCell>
        <mxCell id="zrvc0awcCyqDCohn1Ixf-3" value="" style="endArrow=none;startArrow=none;endFill=0;startFill=0;endSize=8;html=1;verticalAlign=bottom;dashed=1;labelBackgroundColor=none;dashPattern=10 10;rounded=0;entryX=0.998;entryY=0.329;entryDx=0;entryDy=0;entryPerimeter=0;" parent="1" target="c30iMTrRn4nWwHMForby-32" edge="1">
          <mxGeometry width="160" relative="1" as="geometry">
            <mxPoint x="50" y="840" as="sourcePoint" />
            <mxPoint x="210" y="840" as="targetPoint" />
          </mxGeometry>
        </mxCell>
        <mxCell id="zrvc0awcCyqDCohn1Ixf-5" value="&lt;b&gt;if(citaDatos.validate() == Cita)&lt;/b&gt;" style="text;html=1;strokeColor=none;fillColor=none;align=center;verticalAlign=middle;whiteSpace=wrap;rounded=0;" parent="1" vertex="1">
          <mxGeometry x="50" y="850" width="180" height="30" as="geometry" />
        </mxCell>
        <mxCell id="zrvc0awcCyqDCohn1Ixf-6" value="&lt;b&gt;if(cita.validate() == cita)&lt;/b&gt;" style="text;html=1;strokeColor=none;fillColor=none;align=center;verticalAlign=middle;whiteSpace=wrap;rounded=0;" parent="1" vertex="1">
          <mxGeometry x="20" y="650" width="210" height="30" as="geometry" />
        </mxCell>
        <mxCell id="zrvc0awcCyqDCohn1Ixf-8" value="" style="endArrow=none;startArrow=none;endFill=0;startFill=0;endSize=8;html=1;verticalAlign=bottom;dashed=1;labelBackgroundColor=none;dashPattern=10 10;rounded=0;entryX=1.006;entryY=0.194;entryDx=0;entryDy=0;entryPerimeter=0;" parent="1" target="c30iMTrRn4nWwHMForby-40" edge="1">
          <mxGeometry width="160" relative="1" as="geometry">
            <mxPoint x="40" y="620" as="sourcePoint" />
            <mxPoint x="200" y="620" as="targetPoint" />
          </mxGeometry>
        </mxCell>
      </root>
    </mxGraphModel>
  </diagram>
</mxfile>
